<?xml version="1.0" encoding="utf-8"?>
<!-- Generator: Adobe Illustrator 24.0.1, SVG Export Plug-In . SVG Version: 6.00 Build 0)  -->
<svg version="1.1" id="Layer_1" xmlns="http://www.w3.org/2000/svg" xmlns:xlink="http://www.w3.org/1999/xlink" x="0px" y="0px"
	 viewBox="0 0 576 576" style="enable-background:new 0 0 576 576;" xml:space="preserve">
<style type="text/css">
	.st0{fill:#A57638;stroke:#000000;stroke-miterlimit:10;}
	.st1{fill:#E8AE82;stroke:#000000;stroke-miterlimit:10;}
	.st2{fill:#EFE3CA;stroke:#000000;stroke-miterlimit:10;}
	.st3{fill:#17C168;}
	.st4{fill:#FFFFFF;}
</style>
<title>Shelf-M</title>
<rect x="28" y="28" class="st0" width="518.8" height="518.8"/>
<path class="st1" d="M14.1,14.1v547.2h547.2V14.1H14.1z M546.8,546.8H28V28h518.8V546.8z"/>
<rect x="28" y="147.6" class="st2" width="518.8" height="13.9"/>
<rect x="28" y="414.5" class="st2" width="518.8" height="13.9"/>
<rect x="28" y="281.1" class="st2" width="518.8" height="13.9"/>
<a xlink:href="https://www.penguin.com.au/books/native-speaker-penguin-drop-caps-9780143124306" target="_blank">
	<rect x="29" y="198.6" class="st3" width="10" height="81.6"/>
</a>
<path d="M38.5,199.1v80.6h-9v-80.6H38.5 M39.5,198.1h-11v82.6h11V198.1z"/>
<a xlink:href="https://www.penguinrandomhouse.com/books/118711/1q84-by-haruki-murakami/" target="_blank">
	<rect x="40.7" y="209.8" class="st4" width="20" height="70.6"/>
</a>
<path d="M59.9,210.3l0,69.6l-18.4,0l0-69.6L59.9,210.3 M61.2,209.2l-21,0l0,71.5l21,0C61.2,280.8,61.2,209.2,61.2,209.2z"/>
</svg>
