<svg id="Layer_1" data-name="Layer 1" xmlns="http://www.w3.org/2000/svg" xmlns:xlink="http://www.w3.org/1999/xlink" width="20.5246in" height="26.6378in" viewBox="0 0 1477.7746 1917.9185"><defs><style>.cls-1,.cls-3,.cls-4{fill:none;}.cls-1,.cls-3,.cls-4,.cls-5{stroke:#000;stroke-miterlimit:10;}.cls-1,.cls-4{stroke-linecap:square;}.cls-1{stroke-width:7px;}.cls-2,.cls-5{fill:#fff;}.cls-3,.cls-5{stroke-width:0.25px;}.cls-4{stroke-width:4px;}.cls-6{fill:#efe3ca;}</style></defs><title>2019-11-22</title><line class="cls-1" x1="260.7883" y1="347.1195" x2="260.7883" y2="1872.9051"/><line class="cls-1" x1="328.1992" y1="109.0653" x2="328.1992" y2="1872.9051"/><line class="cls-1" x1="260.7883" y1="410.0278" x2="126.6232" y2="410.0278"/><line class="cls-1" x1="328.1992" y1="109.0653" x2="126.6232" y2="109.0653"/><line class="cls-1" x1="126.6232" y1="109.0653" x2="126.6232" y2="410.0278"/><rect class="cls-2" x="123.2482" y="127.9001" width="6.75" height="99.1406"/><path d="M129.873,128.0252v98.8906h-6.5V128.0252h6.5m.25-.25h-7v99.3906h7V127.7752Z"/><line class="cls-3" x1="124.418" y1="227.1657" x2="124.418" y2="127.7751"/><rect class="cls-2" x="142.8542" y="105.6904" width="99.1406" height="6.75"/><path d="M241.87,105.8154v6.5H142.9793v-6.5H241.87m.25-.25H142.7293v7H242.12v-7Z"/><line class="cls-3" x1="142.7292" y1="106.8602" x2="242.1198" y2="106.8602"/><rect class="cls-2" x="257.4133" y="531.9899" width="6.75" height="25.0663"/><path d="M264.0381,532.1147v24.8164h-6.5V532.1147h6.5m.25-.25h-7v25.3164h7V531.8647Z"/><line class="cls-3" x1="258.5831" y1="557.1811" x2="258.5831" y2="531.8649"/><rect class="cls-2" x="257.4133" y="563.5691" width="6.75" height="25.0663"/><path d="M264.0381,563.6943V588.51h-6.5V563.6943h6.5m.25-.25h-7V588.76h7V563.4443Z"/><line class="cls-3" x1="258.5831" y1="588.7604" x2="258.5831" y2="563.4442"/><rect class="cls-2" x="257.4133" y="595.1484" width="6.75" height="25.0663"/><path d="M264.0381,595.2734V620.09h-6.5V595.2734h6.5m.25-.25h-7V620.34h7V595.0234Z"/><line class="cls-3" x1="258.5831" y1="620.3397" x2="258.5831" y2="595.0235"/><rect class="cls-2" x="257.4133" y="626.7277" width="6.75" height="25.0663"/><path d="M264.0381,626.8528v24.8159h-6.5V626.8528h6.5m.25-.25h-7v25.3159h7V626.6028Z"/><line class="cls-3" x1="258.5831" y1="651.919" x2="258.5831" y2="626.6028"/><line class="cls-4" x1="328.1992" y1="449.9082" x2="475.183" y2="449.9082"/><line class="cls-4" x1="674.1946" y1="555.6179" x2="1141.8241" y2="555.6179"/><line class="cls-4" x1="328.1992" y1="555.6179" x2="611.5928" y2="555.6179"/><line class="cls-4" x1="328.1992" y1="875.2079" x2="860.116" y2="875.2079"/><line class="cls-4" x1="328.1992" y1="1038.3388" x2="512.6437" y2="1038.3388"/><line class="cls-4" x1="512.6437" y1="1038.3388" x2="512.6437" y2="1111.3592"/><line class="cls-4" x1="328.1992" y1="1111.3592" x2="512.6437" y2="1111.3592"/><line class="cls-4" x1="548.991" y1="802.9369" x2="812.4311" y2="802.9369"/><line class="cls-4" x1="548.991" y1="607.9565" x2="548.991" y2="802.9369"/><line class="cls-4" x1="1329.6297" y1="1268.0628" x2="1329.6297" y2="937.8722"/><line class="cls-4" x1="1267.0279" y1="1268.0628" x2="1267.0279" y2="1142.9268"/><line class="cls-4" x1="1204.4261" y1="1268.0628" x2="1204.4261" y2="1142.9268"/><line class="cls-4" x1="1141.8242" y1="1268.0628" x2="1141.8242" y2="1142.9268"/><line class="cls-4" x1="1079.2224" y1="1268.0628" x2="1079.2224" y2="1142.9268"/><line class="cls-4" x1="1016.6206" y1="1268.0628" x2="1016.6206" y2="1142.9268"/><line class="cls-4" x1="954.0188" y1="1268.0628" x2="954.0188" y2="937.8722"/><line class="cls-4" x1="860.116" y1="1333.9182" x2="1423.5325" y2="1333.9182"/><rect class="cls-3" x="1081.1534" y="843.166" width="23.3532" height="23.5206" transform="translate(237.9037 1947.7562) rotate(-90)"/><line class="cls-3" x1="1081.0697" y1="845.7395" x2="1104.5903" y2="845.7395"/><rect class="cls-3" x="1052.0982" y="864.7943" width="23.3532" height="23.5206" transform="translate(2127.5497 1753.1092) rotate(180)"/><line class="cls-3" x1="1054.5881" y1="888.3149" x2="1054.5881" y2="864.7943"/><rect class="cls-3" x="1208.1968" y="864.7943" width="23.3532" height="23.5206"/><line class="cls-3" x1="1229.0602" y1="864.7943" x2="1229.0602" y2="888.3149"/><rect class="cls-3" x="1113.8161" y="843.166" width="23.3532" height="23.5206" transform="translate(270.5665 1980.419) rotate(-90)"/><line class="cls-3" x1="1113.7325" y1="845.7395" x2="1137.253" y2="845.7395"/><rect class="cls-3" x="1146.4789" y="843.166" width="23.3532" height="23.5206" transform="translate(303.2293 2013.0818) rotate(-90)"/><line class="cls-3" x1="1146.3952" y1="845.7395" x2="1169.9158" y2="845.7395"/><rect class="cls-3" x="1179.1417" y="843.166" width="23.3532" height="23.5206" transform="translate(335.892 2045.7445) rotate(-90)"/><line class="cls-3" x1="1179.058" y1="845.7395" x2="1202.5786" y2="845.7395"/><rect class="cls-3" x="1179.1417" y="886.4226" width="23.3532" height="23.5206" transform="translate(2089.0012 -292.6354) rotate(90)"/><line class="cls-3" x1="1202.5786" y1="907.3697" x2="1179.058" y2="907.3697"/><rect class="cls-3" x="1146.4789" y="886.4226" width="23.3532" height="23.5206" transform="translate(2056.3384 -259.9726) rotate(90)"/><line class="cls-3" x1="1169.9158" y1="907.3697" x2="1146.3952" y2="907.3697"/><rect class="cls-3" x="1113.8161" y="886.4226" width="23.3532" height="23.5206" transform="translate(2023.6757 -227.3098) rotate(90)"/><line class="cls-3" x1="1137.253" y1="907.3697" x2="1113.7325" y2="907.3697"/><rect class="cls-3" x="1081.1534" y="886.4226" width="23.3532" height="23.5206" transform="translate(1991.0129 -194.6471) rotate(90)"/><line class="cls-3" x1="1104.5903" y1="907.3697" x2="1081.0697" y2="907.3697"/><rect class="cls-5" x="1120.1958" y="798.5053" width="43.2567" height="156.0986" transform="translate(265.2696 2018.3787) rotate(-90)"/><circle cx="1016.6206" cy="1087.1289" r="2.5"/><circle cx="1016.6206" cy="1116.9803" r="2.5"/><circle cx="1016.6206" cy="1027.4263" r="2.5"/><circle cx="1016.6206" cy="1057.2776" r="2.5"/><circle cx="1016.6206" cy="997.5749" r="2.5"/><circle cx="1016.6206" cy="967.7236" r="2.5"/><circle cx="1141.8242" cy="1087.1289" r="2.5"/><circle cx="1141.8242" cy="1116.9803" r="2.5"/><circle cx="1141.8242" cy="1027.4263" r="2.5"/><circle cx="1141.8242" cy="1057.2776" r="2.5"/><circle cx="1141.8242" cy="997.5749" r="2.5"/><circle cx="1141.8242" cy="967.7236" r="2.5"/><circle cx="1079.2224" cy="1087.1289" r="2.5"/><circle cx="1079.2224" cy="1116.9803" r="2.5"/><circle cx="1079.2224" cy="1027.4263" r="2.5"/><circle cx="1079.2224" cy="1057.2776" r="2.5"/><circle cx="1079.2224" cy="997.5749" r="2.5"/><circle cx="1079.2224" cy="967.7236" r="2.5"/><circle cx="1204.4261" cy="1087.1289" r="2.5"/><circle cx="1204.4261" cy="1116.9803" r="2.5"/><circle cx="1204.4261" cy="1027.4263" r="2.5"/><circle cx="1204.4261" cy="1057.2776" r="2.5"/><circle cx="1204.4261" cy="997.5749" r="2.5"/><circle cx="1204.4261" cy="967.7236" r="2.5"/><circle cx="1267.0279" cy="1087.1289" r="2.5"/><circle cx="1267.0279" cy="1116.9803" r="2.5"/><circle cx="1267.0279" cy="1027.4263" r="2.5"/><circle cx="1267.0279" cy="1057.2776" r="2.5"/><circle cx="1267.0279" cy="997.5749" r="2.5"/><circle cx="1267.0279" cy="967.7236" r="2.5"/><path class="cls-4" d="M1329.63,937.8722c0-103.7221-84.0835-187.8051-187.8057-187.8051S954.0185,834.15,954.0185,937.8722"/><line class="cls-4" x1="1423.5324" y1="1332.6108" x2="1423.5324" y2="837.3254"/><line class="cls-4" x1="860.1164" y1="1332.6108" x2="860.1164" y2="837.3254"/><path class="cls-4" d="M1423.5325,837.3254c0-155.5831-126.1251-281.7075-281.7083-281.7075S860.116,681.7423,860.116,837.3254"/><rect class="cls-2" x="324.4492" y="576.3108" width="7.5" height="31.1624"/><rect class="cls-3" x="346.774" y="561.2331" width="1.007" height="31.1623" transform="translate(-229.5368 924.0918) rotate(-90)"/><path class="cls-3" d="M331.6814,607.5982a31.1849,31.1849,0,0,0,31.1773-30.6588"/><rect class="cls-2" x="324.4492" y="1058.8909" width="7.5" height="31.1624"/><rect class="cls-3" x="346.774" y="1043.8133" width="1.007" height="31.1623" transform="translate(-712.1169 1406.672) rotate(-90)"/><path class="cls-3" d="M331.6814,1090.1784a31.1849,31.1849,0,0,0,31.1773-30.6588"/><rect class="cls-2" x="510.2682" y="1059.016" width="4.449" height="31.1624" transform="translate(1024.9854 2149.1944) rotate(180)"/><rect class="cls-3" x="494.4364" y="1074.0937" width="1.007" height="31.1623" transform="translate(1584.6147 594.735) rotate(90)"/><path class="cls-3" d="M510.536,1058.8909a31.1849,31.1849,0,0,0-31.1773,30.6588"/><rect class="cls-2" x="188.6745" y="378.4965" width="7.5" height="62.8104" transform="translate(-217.4772 602.3263) rotate(-90)"/><rect class="cls-3" x="161.1418" y="375.2423" width="1.007" height="31.1623" transform="translate(323.2907 781.6469) rotate(180)"/><path class="cls-3" d="M192.4293,406.42a31.1849,31.1849,0,0,0-30.6588-31.1773"/><rect class="cls-3" x="222.7096" y="375.2423" width="1.007" height="31.1623"/><path class="cls-3" d="M192.4293,406.42a31.1848,31.1848,0,0,1,30.6587-31.1773"/><path d="M514.4663,935.062v21.5855H436.502V935.062h77.9643m.25-.25H436.252v22.0855h78.4643V934.812Z"/><path d="M514.4658,956.896v21.585H436.5015V956.896h77.9643m.25-.25H436.2515v22.085h78.4643V956.646Z"/>

<a xlink:href="../components/library/Shelf-M.svg"><rect class="cls-6" x="561.0532" y="914.3342" width="21.8352" height="121.879"/></a>

<path d="M582.7637,914.46v121.6289H561.1782V914.46h21.5855m.25-.25H560.9282v122.1289h22.0855V914.21Z"/><path d="M604.5972,914.46V992.424H583.0118V914.46h21.5854m.25-.25H582.7618V992.674h22.0854V914.21Z"/><path d="M743.3693,992.6693v21.5854H583.0118V992.6693H743.3693m.25-.25H582.7618v22.0854H743.6193V992.4193Z"/><path d="M743.3677,1014.503v21.5854H583.0108V1014.503H743.3677m.25-.25H582.7608v22.0854H743.6177V1014.253Z"/><path d="M436.2493,935.0635v43.4189H414.6644V935.0635h21.5849m.25-.25H414.4144v43.9189h22.0849V934.8135Z"/><rect class="cls-2" x="976.2047" y="557.6357" width="168.5941" height="48.319"/><rect class="cls-2" x="391.4246" y="1109.4841" width="59.3683" height="3.75"/><path d="M450.668,1109.6094v3.5H391.55v-3.5H450.668m.25-.25H391.3v4H450.918v-4Z"/><line class="cls-3" x1="450.9178" y1="1112.0653" x2="391.2996" y2="1112.0653"/><rect class="cls-2" x="332.0563" y="1109.4841" width="59.3683" height="3.75"/><path d="M391.3,1109.6094v3.5H332.1815v-3.5H391.3m.25-.25H331.9315v4H391.55v-4Z"/><line class="cls-3" x1="391.5495" y1="1112.0653" x2="331.9313" y2="1112.0653"/><rect class="cls-2" x="450.7925" y="1109.4841" width="59.3683" height="3.75"/><path d="M510.0359,1109.6094v3.5H450.9177v-3.5h59.1182m.25-.25H450.6677v4h59.6182v-4Z"/><line class="cls-3" x1="510.2857" y1="1112.0653" x2="450.6675" y2="1112.0653"/><path d="M514.3936,1014.5029v21.5855H332.3022l21.585-21.5855H514.3936m.25-.25h-160.86l-22.085,22.0855H514.6436v-22.0855Z"/><path d="M514.3936,877.4572v21.5854H353.8872l-21.585-21.5854H514.3936m.25-.25H331.6987l22.085,22.0854h160.86V877.2072Z"/><path d="M331.9487,877.4585l21.5855,21.5854V1014.502l-21.5855,21.5849V877.4585m-.25-.6035V1036.69l22.0855-22.0849V898.94L331.6987,876.855Z"/></svg>